<svg width="22" height="22" viewBox="0 0 22 22" fill="none" xmlns="http://www.w3.org/2000/svg">
<g id="Frame 270989186">
<path id="Vector" d="M21 4.33333V3C21 2.5 20.75 2 20.4167 1.58333C20 1.25 19.5 1 19 1H17.6667C17.1667 1 16.6667 1.25 16.25 1.58333C15.8333 2 15.6667 2.5 15.6667 3H6.33333C6.33333 2.5 6.08333 2 5.75 1.58333C5.33333 1.25 4.83333 1 4.33333 1H3C2.5 1 2 1.25 1.58333 1.58333C1.25 2 1 2.5 1 3V4.33333C1 4.83333 1.25 5.33333 1.58333 5.75C2 6.16667 2.5 6.33333 3 6.33333V15.6667C2.5 15.6667 2 15.9167 1.58333 16.25C1.25 16.6667 1 17.1667 1 17.6667V19C1 19.5 1.25 20 1.58333 20.4167C2 20.75 2.5 21 3 21H4.33333C4.83333 21 5.33333 20.75 5.75 20.4167C6.16667 20 6.33333 19.5 6.33333 19H15.6667C15.6667 19.5 15.9167 20 16.25 20.4167C16.6667 20.8333 17.1667 21 17.6667 21H19C19.5 21 20 20.75 20.4167 20.4167C20.8333 20 21 19.5 21 19V17.6667C21 17.1667 20.75 16.6667 20.4167 16.25C20 15.8333 19.5 15.6667 19 15.6667V6.33333C19.5 6.33333 20 6.08333 20.4167 5.75C20.75 5.33333 21 4.83333 21 4.33333ZM17.1667 3.08333C17.1667 2.91667 17.25 2.75 17.3333 2.66667C17.4167 2.58333 17.5833 2.5 17.75 2.5H18.9167C19.0833 2.5 19.25 2.58333 19.3333 2.66667C19.4167 2.75 19.5 2.91667 19.5 3.08333V4.25C19.5 4.41667 19.4167 4.58333 19.3333 4.66667C19.25 4.75 19.0833 4.83333 18.9167 4.83333H17.75C17.5833 4.83333 17.4167 4.75 17.3333 4.66667C17.25 4.58333 17.1667 4.41667 17.1667 4.25V3.08333ZM2.5 4.25V3.08333C2.5 2.91667 2.5 2.75 2.66667 2.66667C2.75 2.58333 2.91667 2.5 3.08333 2.5H4.25C4.41667 2.5 4.58333 2.58333 4.66667 2.66667C4.75 2.75 4.83333 2.91667 4.83333 3.08333V4.25C4.83333 4.41667 4.75 4.58333 4.66667 4.66667C4.58333 4.83333 4.41667 4.83333 4.25 4.83333H3.08333C2.91667 4.83333 2.75 4.83333 2.66667 4.66667C2.5 4.58333 2.5 4.41667 2.5 4.25ZM4.83333 18.9167C4.83333 19.0833 4.75 19.25 4.66667 19.3333C4.58333 19.4167 4.41667 19.5 4.25 19.5H3.08333C2.91667 19.5 2.75 19.4167 2.66667 19.3333C2.58333 19.25 2.5 19.0833 2.5 18.9167V17.75C2.5 17.5833 2.58333 17.4167 2.66667 17.3333C2.75 17.25 2.91667 17.1667 3.08333 17.1667H4.25C4.41667 17.1667 4.58333 17.25 4.66667 17.3333C4.75 17.4167 4.83333 17.5833 4.83333 17.75V18.9167ZM19.5 17.75V18.9167C19.5 19.0833 19.4167 19.25 19.3333 19.3333C19.25 19.4167 19.0833 19.5 18.9167 19.5H17.75C17.5833 19.5 17.4167 19.4167 17.3333 19.3333C17.25 19.25 17.1667 19.0833 17.1667 18.9167V17.75C17.1667 17.5833 17.25 17.4167 17.3333 17.3333C17.4167 17.25 17.5833 17.1667 17.75 17.1667H18.9167C19.0833 17.1667 19.25 17.25 19.3333 17.3333C19.4167 17.4167 19.5 17.5833 19.5 17.75ZM17.5 15.5833C17 15.5833 16.5 15.75 16.0833 16.1667C15.75 16.5 15.5 17 15.5 17.5833H6.33333C6.33333 17.0833 6.16667 16.5833 5.75 16.1667C5.41667 15.8333 4.91667 15.5833 4.33333 15.5833V6.41667C4.83333 6.41667 5.33333 6.25 5.75 5.83333C6.08333 5.5 6.33333 5 6.33333 4.41667H15.5C15.5 4.91667 15.6667 5.41667 16.0833 5.83333C16.4167 6.16667 16.9167 6.41667 17.5 6.41667V15.5833ZM15 7.66667C15 8 14.9167 8.16667 14.8333 8.25C14.75 8.33333 14.5 8.5 14.3333 8.5H11.75V14.3333C11.75 14.5833 11.5833 14.8333 11.3333 14.9167C11.1667 15 10.8333 15 10.6667 14.9167C10.5 14.8333 10.25 14.5833 10.25 14.3333V8.5H7.66667C7.41667 8.5 7.25 8.33333 7.08333 8.16667C7 8 7 7.58333 7.08333 7.33333C7.25 7.16667 7.41667 7 7.66667 7H14.3333C14.5 7 14.6667 7.08333 14.8333 7.16667C14.9167 7.33333 15 7.5 15 7.66667Z" fill="#2E3146"/>
</g>
</svg>
