<svg width="25" height="24" viewBox="0 0 25 24" fill="none" xmlns="http://www.w3.org/2000/svg">
<g clip-path="url(#clip0_1_4782)">
<path d="M6.83333 8.33333H7.7381V6.52381C7.7381 4.02667 9.76476 2 12.2619 2C14.759 2 16.7857 4.02667 16.7857 6.52381H14.9762C14.9762 5.0219 13.7638 3.80952 12.2619 3.80952C10.76 3.80952 9.54762 5.0219 9.54762 6.52381V8.33333H17.6905C18.6857 8.33333 19.5 9.14762 19.5 10.1429V19.1905C19.5 20.1857 18.6857 21 17.6905 21H6.83333C5.83809 21 5.02381 20.1857 5.02381 19.1905V10.1429C5.02381 9.14762 5.83809 8.33333 6.83333 8.33333ZM6.83333 19.1905H17.6905V10.1429H6.83333V19.1905ZM12.2619 16.4762C11.2667 16.4762 10.4524 15.6619 10.4524 14.6667C10.4524 13.6714 11.2667 12.8571 12.2619 12.8571C13.2571 12.8571 14.0714 13.6714 14.0714 14.6667C14.0714 15.6619 13.2571 16.4762 12.2619 16.4762Z" fill="#8593AB"/>
</g>
<defs>
<clipPath id="clip0_1_4782">
<rect width="24" height="24" fill="white" transform="matrix(-1 0 0 1 24.5 0)"/>
</clipPath>
</defs>
</svg>
